<?xml version="1.0"?>
<svg xmlns="http://www.w3.org/2000/svg" xmlns:xlink="http://www.w3.org/1999/xlink" version="1.1" id="Capa_1" x="0px" y="0px" viewBox="0 0 381.52 381.52" style="enable-background:new 0 0 381.52 381.52;" xml:space="preserve" width="512px" height="512px" class=""><g><g>
	<g>
		<path d="M356.4,43.567c-9.026-4.625-19.06-6.934-29.2-6.72H52.16C19.52,36.847,0,56.367,0,89.087v150.8    c0,27.52,12.4,40.64,22.8,46.8c9.14,5.155,19.51,7.727,30,7.44h129.92v34.56h-48c-4.418,0-8,3.582-8,8c0,4.418,3.582,8,8,8h112.8    c4.418,0,8-3.582,8-8c0-4.418-3.582-8-8-8h-48v-34.56h127.76c40,0,54.24-28,54.24-54.24v-148.8    C381.52,62.927,367.84,49.727,356.4,43.567z M327.28,278.047l-274.48,0.08c-7.589,0.254-15.106-1.542-21.76-5.2    c-9.997-6.78-15.658-18.346-14.88-30.4h349.28C364.72,259.327,357.44,278.047,327.28,278.047z M365.52,226.607H16V89.087    c0-24,12.16-36.24,36.16-36.24h275.12c7.486-0.204,14.905,1.445,21.6,4.8c11.04,5.92,16.64,17.12,16.64,33.36V226.607z" data-original="#000000" class="active-path" data-old_color="#000000" fill="#FF689B"/>
	</g>
</g><g>
	<g>
		<path d="M218.8,64.367h-56c-4.418,0-8,3.582-8,8c0,4.418,3.582,8,8,8h56c4.418,0,8-3.582,8-8    C226.8,67.949,223.218,64.367,218.8,64.367z" data-original="#000000" class="active-path" data-old_color="#000000" fill="#FF689B"/>
	</g>
</g></g> </svg>
